RobotoExtremo-opszmax-wghtmax.ufo
<glyph name="dollar" format="2">
  <advance width="1249"/>
  <unicode hex="0024"/>
  <outline>
    <contour>
      <point x="-4" y="387" type="line" smooth="yes"/>
      <point x="-4" y="186"/>
      <point x="359" y="-20"/>
      <point x="628" y="-20" type="qcurve" smooth="yes"/>
      <point x="897" y="-20"/>
      <point x="1240" y="236"/>
      <point x="1240" y="474" type="qcurve" smooth="yes"/>
      <point x="1240" y="684"/>
      <point x="1005" y="897"/>
      <point x="800" y="952" type="qcurve" smooth="yes"/>
      <point x="600" y="1006"/>
      <point x="555" y="1028"/>
      <point x="555" y="1048" type="qcurve" smooth="yes"/>
      <point x="555" y="1067"/>
      <point x="582" y="1090"/>
      <point x="615" y="1090" type="qcurve" smooth="yes"/>
      <point x="646" y="1090"/>
      <point x="681" y="1059"/>
      <point x="681" y="1028" type="qcurve" smooth="yes"/>
      <point x="681" y="1005" type="line"/>
      <point x="1204" y="1005" type="line"/>
      <point x="1204" y="1085" type="line" smooth="yes"/>
      <point x="1204" y="1273"/>
      <point x="867" y="1474"/>
      <point x="601" y="1474" type="qcurve" smooth="yes"/>
      <point x="338" y="1474"/>
      <point x="4" y="1232"/>
      <point x="4" y="1004" type="qcurve" smooth="yes"/>
      <point x="4" y="806"/>
      <point x="242" y="604"/>
      <point x="479" y="528" type="qcurve" smooth="yes"/>
      <point x="644" y="475"/>
      <point x="691" y="440"/>
      <point x="691" y="410" type="qcurve" smooth="yes"/>
      <point x="691" y="380"/>
      <point x="651" y="350"/>
      <point x="618" y="350" type="qcurve" smooth="yes"/>
      <point x="575" y="350"/>
      <point x="528" y="398"/>
      <point x="529" y="449" type="qcurve" smooth="yes"/>
      <point x="529" y="484" type="line"/>
      <point x="-4" y="484" type="line"/>
    </contour>
    <contour>
      <point x="386" y="-151" type="line"/>
      <point x="860" y="-151" type="line"/>
      <point x="860" y="89" type="line"/>
      <point x="850" y="99" type="line"/>
      <point x="850" y="728" type="line"/>
      <point x="386" y="728" type="line"/>
    </contour>
    <contour>
      <point x="396" y="728" type="line"/>
      <point x="860" y="728" type="line"/>
      <point x="860" y="1606" type="line"/>
      <point x="386" y="1606" type="line"/>
      <point x="386" y="1366" type="line"/>
      <point x="396" y="1356" type="line"/>
    </contour>
  </outline>
</glyph>
<glyph name="percent" format="2">
  <advance width="1927"/>
  <unicode hex="0025"/>
  <outline>
    <contour>
      <point x="5" y="1065" type="line" smooth="yes"/>
      <point x="5" y="870"/>
      <point x="225" y="660"/>
      <point x="397" y="660" type="qcurve" smooth="yes"/>
      <point x="569" y="660"/>
      <point x="788" y="870"/>
      <point x="788" y="1065" type="qcurve" smooth="yes"/>
      <point x="788" y="1106" type="line" smooth="yes"/>
      <point x="788" y="1276"/>
      <point x="569" y="1476"/>
      <point x="397" y="1476" type="qcurve" smooth="yes"/>
      <point x="225" y="1476"/>
      <point x="5" y="1276"/>
      <point x="5" y="1106" type="qcurve" smooth="yes"/>
    </contour>
    <contour>
      <point x="358" y="989" type="qcurve" smooth="yes"/>
      <point x="358" y="1137" type="line" smooth="yes"/>
      <point x="358" y="1190"/>
      <point x="373" y="1230"/>
      <point x="397" y="1230" type="qcurve" smooth="yes"/>
      <point x="421" y="1230"/>
      <point x="435" y="1190"/>
      <point x="435" y="1137" type="qcurve" smooth="yes"/>
      <point x="435" y="989" type="line" smooth="yes"/>
      <point x="435" y="936"/>
      <point x="418" y="906"/>
      <point x="397" y="906" type="qcurve" smooth="yes"/>
      <point x="376" y="906"/>
      <point x="358" y="936"/>
    </contour>
    <contour>
      <point x="403" y="178" type="line"/>
      <point x="794" y="-28" type="line"/>
      <point x="1529" y="1284" type="line"/>
      <point x="1131" y="1484" type="line"/>
    </contour>
    <contour>
      <point x="1139" y="385" type="line" smooth="yes"/>
      <point x="1139" y="190"/>
      <point x="1359" y="-20"/>
      <point x="1531" y="-20" type="qcurve" smooth="yes"/>
      <point x="1703" y="-20"/>
      <point x="1922" y="190"/>
      <point x="1922" y="385" type="qcurve" smooth="yes"/>
      <point x="1922" y="426" type="line" smooth="yes"/>
      <point x="1922" y="596"/>
      <point x="1703" y="796"/>
      <point x="1531" y="796" type="qcurve" smooth="yes"/>
      <point x="1359" y="796"/>
      <point x="1139" y="596"/>
      <point x="1139" y="426" type="qcurve" smooth="yes"/>
    </contour>
    <contour>
      <point x="1492" y="309" type="qcurve" smooth="yes"/>
      <point x="1492" y="457" type="line" smooth="yes"/>
      <point x="1492" y="510"/>
      <point x="1507" y="550"/>
      <point x="1531" y="550" type="qcurve" smooth="yes"/>
      <point x="1555" y="550"/>
      <point x="1569" y="510"/>
      <point x="1569" y="457" type="qcurve" smooth="yes"/>
      <point x="1569" y="309" type="line" smooth="yes"/>
      <point x="1569" y="256"/>
      <point x="1552" y="226"/>
      <point x="1531" y="226" type="qcurve" smooth="yes"/>
      <point x="1510" y="226"/>
      <point x="1492" y="256"/>
    </contour>
  </outline>
</glyph>
<glyph name="parenright" format="2">
  <advance width="767"/>
  <unicode hex="0029"/>
  <outline>
    <contour>
      <point x="24" y="-436" type="line"/>
      <point x="335" y="-386"/>
      <point x="733" y="81"/>
      <point x="733" y="515" type="qcurve" smooth="yes"/>
      <point x="733" y="526" type="line" smooth="yes"/>
      <point x="733" y="960"/>
      <point x="335" y="1426"/>
      <point x="24" y="1476" type="qcurve"/>
      <point x="24" y="1141" type="line"/>
      <point x="116" y="1104"/>
      <point x="137" y="882"/>
      <point x="137" y="532" type="qcurve" smooth="yes"/>
      <point x="137" y="508" type="line" smooth="yes"/>
      <point x="137" y="158"/>
      <point x="116" y="-64"/>
      <point x="24" y="-101" type="qcurve"/>
    </contour>
  </outline>
</glyph>
<glyph name="plus" format="2">
  <advance width="1135"/>
  <unicode hex="002B"/>
  <outline>
    <contour>
      <point x="56" y="429" type="line"/>
      <point x="1079" y="429" type="line"/>
      <point x="1079" y="919" type="line"/>
      <point x="56" y="919" type="line"/>
    </contour>
    <contour>
      <point x="317" y="168" type="line"/>
      <point x="819" y="168" type="line"/>
      <point x="819" y="1180" type="line"/>
      <point x="317" y="1180" type="line"/>
    </contour>
  </outline>
</glyph>
<glyph name="one" format="2">
  <advance width="1129"/>
  <unicode hex="0031"/>
  <outline>
    <contour>
      <point x="488" y="0" type="line"/>
      <point x="1085" y="0" type="line"/>
      <point x="1085" y="1454" type="line"/>
      <point x="581" y="1454" type="line"/>
      <point x="42" y="1302" type="line"/>
      <point x="42" y="830" type="line"/>
      <point x="488" y="953" type="line"/>
    </contour>
  </outline>
</glyph>
<glyph name="four" format="2">
  <advance width="1361"/>
  <unicode hex="0034"/>
  <outline>
    <contour>
      <point x="667" y="0.0" type="line"/>
      <point x="1201" y="0.0" type="line"/>
      <point x="1201" y="1456.0" type="line"/>
      <point x="743" y="1456.0" type="line"/>
      <point x="39" y="622.0" type="line"/>
      <point x="39" y="219.0" type="line"/>
      <point x="1344" y="219.0" type="line"/>
      <point x="1344" y="665.0" type="line"/>
      <point x="949" y="665.0" type="line"/>
      <point x="921" y="615.0" type="line"/>
      <point x="562" y="615.0" type="line"/>
      <point x="720" y="799.0" type="line"/>
      <point x="729" y="799.0" type="line"/>
      <point x="729" y="355.0" type="line"/>
      <point x="667" y="341.0" type="line"/>
    </contour>
  </outline>
</glyph>
<glyph name="five" format="2">
  <advance width="833"/>
  <unicode hex="0035"/>
  <outline>
    <contour>
      <point x="33" y="370" type="line" smooth="yes"/>
      <point x="33" y="198"/>
      <point x="242" y="-20"/>
      <point x="412" y="-20" type="qcurve" smooth="yes"/>
      <point x="590" y="-20"/>
      <point x="801" y="214"/>
      <point x="801" y="465" type="qcurve" smooth="yes"/>
      <point x="801.0" y="711.7539503386005"/>
      <point x="604.0" y="913.0"/>
      <point x="457" y="913" type="qcurve" smooth="yes"/>
      <point x="367.0" y="913.0"/>
      <point x="236.9111477445392" y="858.8074475297334"/>
      <point x="196" y="814" type="qcurve"/>
      <point x="250" y="1360" type="line"/>
      <point x="739" y="1360" type="line"/>
      <point x="739" y="1456" type="line"/>
      <point x="156" y="1456" type="line"/>
      <point x="84" y="717" type="line"/>
      <point x="175" y="690" type="line"/>
      <point x="211.03136116500917" y="746.481593177582"/>
      <point x="340.0" y="820.0"/>
      <point x="435" y="820" type="qcurve" smooth="yes"/>
      <point x="535.0" y="820.0"/>
      <point x="689.0" y="682.9305555555555"/>
      <point x="689" y="465" type="qcurve" smooth="yes"/>
      <point x="689.0" y="249.5388471177945"/>
      <point x="544.0" y="76.0"/>
      <point x="412" y="76" type="qcurve" smooth="yes"/>
      <point x="290.0" y="76.0"/>
      <point x="144" y="223.9671052631579"/>
      <point x="144" y="370" type="qcurve" smooth="yes"/>
      <point x="144" y="390" type="line"/>
      <point x="33" y="390" type="line"/>
    </contour>
  </outline>
</glyph>
<glyph name="less" format="2">
  <advance width="925"/>
  <unicode hex="003C"/>
  <outline>
    <contour>
      <point x="883" y="29" type="line"/>
      <point x="883" y="537" type="line"/>
      <point x="484" y="674" type="line"/>
      <point x="883" y="821" type="line"/>
      <point x="883" y="1329" type="line"/>
      <point x="32" y="909" type="line"/>
      <point x="32" y="439" type="line"/>
    </contour>
  </outline>
</glyph>
<glyph name="equal" format="2">
  <advance width="1135"/>
  <unicode hex="003D"/>
  <outline>
    <contour>
      <point x="56" y="145" type="line"/>
      <point x="56" y="635" type="line"/>
      <point x="1079" y="635" type="line"/>
      <point x="1079" y="145" type="line"/>
    </contour>
    <contour>
      <point x="56" y="721" type="line"/>
      <point x="56" y="1211" type="line"/>
      <point x="1079" y="1211" type="line"/>
      <point x="1079" y="721" type="line"/>
    </contour>
  </outline>
</glyph>
<glyph name="greater" format="2">
  <advance width="925"/>
  <unicode hex="003E"/>
  <outline>
    <contour>
      <point x="42" y="29" type="line"/>
      <point x="893" y="449" type="line"/>
      <point x="893" y="919" type="line"/>
      <point x="42" y="1329" type="line"/>
      <point x="42" y="821" type="line"/>
      <point x="441" y="684" type="line"/>
      <point x="42" y="537" type="line"/>
    </contour>
  </outline>
</glyph>
<glyph name="I" format="2">
  <advance width="698"/>
  <unicode hex="0049"/>
  <outline>
    <contour>
      <point x="44" y="0" type="line"/>
      <point x="654" y="0" type="line"/>
      <point x="654" y="1456" type="line"/>
      <point x="44" y="1456" type="line"/>
    </contour>
  </outline>
</glyph>
<glyph name="L" format="2">
  <advance width="1144"/>
  <unicode hex="004C"/>
  <outline>
    <contour>
      <point x="40" y="0" type="line"/>
      <point x="1124" y="0" type="line"/>
      <point x="1124" y="466" type="line"/>
      <point x="640" y="466" type="line"/>
      <point x="640" y="1456" type="line"/>
      <point x="40" y="1456" type="line"/>
    </contour>
  </outline>
</glyph>
<glyph name="N" format="2">
  <advance width="1352"/>
  <unicode hex="004E"/>
  <anchor x="673" y="1432" name="top"/>
  <outline>
    <contour>
      <point x="40" y="0" type="line"/>
      <point x="541" y="0" type="line"/>
      <point x="541" y="446" type="line" smooth="yes"/>
      <point x="541" y="481"/>
      <point x="541" y="529"/>
      <point x="538" y="563" type="qcurve"/>
      <point x="542" y="563" type="line"/>
      <point x="549" y="530"/>
      <point x="572" y="457"/>
      <point x="582" y="426" type="qcurve" smooth="yes"/>
      <point x="719" y="0" type="line"/>
      <point x="1287" y="0" type="line"/>
      <point x="1287" y="1456" type="line"/>
      <point x="786" y="1456" type="line"/>
      <point x="786" y="1031" type="line" smooth="yes"/>
      <point x="786" y="997"/>
      <point x="784" y="922"/>
      <point x="786" y="888" type="qcurve"/>
      <point x="782" y="888" type="line"/>
      <point x="775" y="921"/>
      <point x="751" y="1008"/>
      <point x="742" y="1041" type="qcurve" smooth="yes"/>
      <point x="627" y="1456" type="line"/>
      <point x="40" y="1456" type="line"/>
    </contour>
  </outline>
</glyph>
<glyph name="R" format="2">
  <advance width="1471"/>
  <unicode hex="0052"/>
  <outline>
    <contour>
      <point x="40" y="0" type="line"/>
      <point x="640" y="0" type="line"/>
      <point x="640" y="413" type="line"/>
      <point x="851" y="413" type="line" smooth="yes"/>
      <point x="1049" y="413"/>
      <point x="1367" y="716"/>
      <point x="1367" y="952" type="qcurve" smooth="yes"/>
      <point x="1367" y="1177"/>
      <point x="1079" y="1456"/>
      <point x="860" y="1456" type="qcurve" smooth="yes"/>
      <point x="40" y="1456" type="line"/>
    </contour>
    <contour>
      <point x="640" y="776" type="line"/>
      <point x="640" y="1052" type="line"/>
      <point x="689" y="1052" type="line" smooth="yes"/>
      <point x="728" y="1052"/>
      <point x="760" y="969"/>
      <point x="760" y="910" type="qcurve" smooth="yes"/>
      <point x="760" y="851"/>
      <point x="728" y="776"/>
      <point x="689" y="776" type="qcurve" smooth="yes"/>
    </contour>
    <contour>
      <point x="864" y="0" type="line"/>
      <point x="1511" y="0" type="line"/>
      <point x="1163" y="667" type="line"/>
      <point x="573" y="667" type="line"/>
    </contour>
  </outline>
</glyph>
<glyph name="T" format="2">
  <advance width="1308"/>
  <unicode hex="0054"/>
  <outline>
    <contour>
      <point x="4" y="990" type="line"/>
      <point x="350" y="990" type="line"/>
      <point x="350" y="0" type="line"/>
      <point x="960" y="0" type="line"/>
      <point x="960" y="990" type="line"/>
      <point x="1304" y="990" type="line"/>
      <point x="1304" y="1456" type="line"/>
      <point x="4" y="1456" type="line"/>
    </contour>
  </outline>
</glyph>
<glyph name="U" format="2">
  <advance width="1361"/>
  <unicode hex="0055"/>
  <outline>
    <contour>
      <point x="32" y="566" type="line" smooth="yes"/>
      <point x="32" y="267"/>
      <point x="368" y="-20"/>
      <point x="682" y="-20" type="qcurve" smooth="yes"/>
      <point x="980" y="-20"/>
      <point x="1314" y="267"/>
      <point x="1314" y="566" type="qcurve" smooth="yes"/>
      <point x="1314" y="1456" type="line"/>
      <point x="713" y="1456" type="line"/>
      <point x="713" y="464" type="line" smooth="yes"/>
      <point x="713" y="406"/>
      <point x="695" y="366"/>
      <point x="671" y="366.0" type="qcurve" smooth="yes"/>
      <point x="648" y="366"/>
      <point x="630" y="406"/>
      <point x="630" y="464" type="qcurve" smooth="yes"/>
      <point x="630" y="1456" type="line"/>
      <point x="32" y="1456" type="line"/>
    </contour>
  </outline>
</glyph>
<glyph name="Y" format="2">
  <advance width="1421"/>
  <unicode hex="0059"/>
  <anchor x="711" y="1432" name="top"/>
  <outline>
    <contour>
      <point x="406" y="0" type="line"/>
      <point x="1016" y="0" type="line"/>
      <point x="1016" y="547" type="line"/>
      <point x="1476" y="1456" type="line"/>
      <point x="909" y="1456" type="line"/>
      <point x="778" y="1175" type="line" smooth="yes"/>
      <point x="771" y="1160"/>
      <point x="760" y="1136"/>
      <point x="755" y="1122" type="qcurve"/>
      <point x="752" y="1122" type="line"/>
      <point x="747" y="1136"/>
      <point x="735" y="1160"/>
      <point x="728" y="1175" type="qcurve" smooth="yes"/>
      <point x="590" y="1456" type="line"/>
      <point x="-55" y="1456" type="line"/>
      <point x="406" y="547" type="line"/>
    </contour>
  </outline>
</glyph>
<glyph name="bracketleft" format="2">
  <advance width="812"/>
  <unicode hex="005B"/>
  <outline>
    <contour>
      <point x="74" y="-310" type="line"/>
      <point x="792" y="-310" type="line"/>
      <point x="792" y="85" type="line"/>
      <point x="601" y="85" type="line"/>
      <point x="601" y="1061" type="line"/>
      <point x="792" y="1061" type="line"/>
      <point x="792" y="1456" type="line"/>
      <point x="74" y="1456" type="line"/>
    </contour>
  </outline>
</glyph>
<glyph name="asciicircum" format="2">
  <advance width="1247"/>
  <unicode hex="005E"/>
  <outline>
    <contour>
      <point x="5" y="720" type="line"/>
      <point x="462" y="720" type="line"/>
      <point x="747" y="1260" type="line"/>
      <point x="491" y="1276" type="line"/>
      <point x="785" y="720" type="line"/>
      <point x="1242" y="720" type="line"/>
      <point x="837" y="1456" type="line"/>
      <point x="410" y="1456" type="line"/>
    </contour>
  </outline>
</glyph>
<glyph name="grave" format="2">
  <advance width="986"/>
  <unicode hex="0060"/>
  <anchor x="474" y="914" name="_top"/>
  <outline>
    <contour>
      <point x="271.0" y="1156.0" type="line"/>
      <point x="760.0" y="1156.0" type="line"/>
      <point x="548.0" y="1526.0" type="line"/>
      <point x="13.0" y="1526.0" type="line"/>
    </contour>
  </outline>
</glyph>
<glyph name="e" format="2">
  <advance width="1267"/>
  <unicode hex="0065"/>
  <anchor x="645.0" y="914.0" name="top"/>
  <outline>
    <contour>
      <point x="10" y="447" type="qcurve" smooth="yes"/>
      <point x="10" y="479" type="line" smooth="yes"/>
      <point x="10" y="699"/>
      <point x="353" y="950"/>
      <point x="650" y="950" type="qcurve" smooth="yes"/>
      <point x="935" y="950"/>
      <point x="1246" y="696"/>
      <point x="1246" y="487" type="qcurve" smooth="yes"/>
      <point x="1246" y="425" type="line"/>
      <point x="349" y="425" type="line"/>
      <point x="349" y="506" type="line"/>
      <point x="693" y="506" type="line"/>
      <point x="693" y="516" type="line" smooth="yes"/>
      <point x="693" y="547"/>
      <point x="671" y="581"/>
      <point x="643" y="581" type="qcurve" smooth="yes"/>
      <point x="616" y="581"/>
      <point x="588" y="544"/>
      <point x="588" y="494" type="qcurve" smooth="yes"/>
      <point x="588" y="443" type="line" smooth="yes"/>
      <point x="588" y="386"/>
      <point x="622" y="345"/>
      <point x="654" y="345" type="qcurve"/>
      <point x="688" y="345"/>
      <point x="723" y="374"/>
      <point x="732" y="399" type="qcurve"/>
      <point x="1243" y="334" type="line"/>
      <point x="1189" y="147"/>
      <point x="918" y="-27"/>
      <point x="657" y="-27" type="qcurve" smooth="yes"/>
      <point x="349" y="-27"/>
      <point x="10" y="222"/>
    </contour>
  </outline>
</glyph>
<glyph name="m" format="2">
  <advance width="1932"/>
  <unicode hex="006D"/>
  <outline>
    <contour>
      <point x="18" y="-1" type="line"/>
      <point x="598" y="-1" type="line"/>
      <point x="598" y="489" type="line"/>
      <point x="602" y="508"/>
      <point x="625" y="536"/>
      <point x="641" y="536" type="qcurve" smooth="yes"/>
      <point x="659" y="536"/>
      <point x="678.0" y="513.0"/>
      <point x="678.0" y="488" type="qcurve" smooth="yes"/>
      <point x="678" y="-1" type="line"/>
      <point x="1260" y="-1" type="line"/>
      <point x="1260" y="490" type="line"/>
      <point x="1265" y="509"/>
      <point x="1289" y="536"/>
      <point x="1305" y="536.0" type="qcurve" smooth="yes"/>
      <point x="1322" y="536"/>
      <point x="1340.0" y="513"/>
      <point x="1340" y="488" type="qcurve" smooth="yes"/>
      <point x="1340" y="-1" type="line"/>
      <point x="1922.0" y="-1" type="line"/>
      <point x="1922.0" y="611" type="line" smooth="yes"/>
      <point x="1922.0" y="790"/>
      <point x="1743.0" y="942"/>
      <point x="1593.0" y="942" type="qcurve" smooth="yes"/>
      <point x="1472.0" y="942"/>
      <point x="1278.0" y="853"/>
      <point x="1220.0" y="777" type="qcurve"/>
      <point x="1217" y="777" type="line"/>
      <point x="1188" y="858"/>
      <point x="1030" y="940"/>
      <point x="923" y="940" type="qcurve" smooth="yes"/>
      <point x="805" y="940"/>
      <point x="639" y="854"/>
      <point x="594" y="779" type="qcurve"/>
      <point x="590" y="779" type="line"/>
      <point x="590" y="913" type="line"/>
      <point x="18" y="913" type="line"/>
    </contour>
  </outline>
</glyph>
<glyph name="n" format="2">
  <advance width="1272"/>
  <unicode hex="006E"/>
  <outline>
    <contour>
      <point x="18" y="0" type="line"/>
      <point x="598" y="0" type="line"/>
      <point x="598" y="489" type="line"/>
      <point x="605" y="510"/>
      <point x="628" y="536"/>
      <point x="644" y="536.0" type="qcurve" smooth="yes"/>
      <point x="660" y="536"/>
      <point x="680.0" y="511.0"/>
      <point x="680.0" y="486" type="qcurve" smooth="yes"/>
      <point x="680" y="0" type="line"/>
      <point x="1260" y="0" type="line"/>
      <point x="1260" y="606" type="line" smooth="yes"/>
      <point x="1260" y="783"/>
      <point x="1065" y="943"/>
      <point x="913" y="943" type="qcurve" smooth="yes"/>
      <point x="779" y="943"/>
      <point x="622" y="855"/>
      <point x="597" y="794" type="qcurve"/>
      <point x="596" y="794" type="line"/>
      <point x="596" y="914" type="line"/>
      <point x="18" y="914" type="line"/>
    </contour>
  </outline>
</glyph>
<glyph name="q" format="2">
  <advance width="1292"/>
  <unicode hex="0071"/>
  <outline>
    <contour>
      <point x="10" y="442" type="line" smooth="yes"/>
      <point x="10" y="242"/>
      <point x="220" y="-20"/>
      <point x="406" y="-20" type="qcurve" smooth="yes"/>
      <point x="515" y="-20"/>
      <point x="669" y="70"/>
      <point x="715" y="133" type="qcurve"/>
      <point x="711" y="133" type="line"/>
      <point x="711" y="-418" type="line"/>
      <point x="1274" y="-418" type="line"/>
      <point x="1274" y="914" type="line"/>
      <point x="717" y="914" type="line"/>
      <point x="717" y="810" type="line"/>
      <point x="717" y="810" type="line"/>
      <point x="681" y="859"/>
      <point x="532" y="934"/>
      <point x="406" y="934" type="qcurve" smooth="yes"/>
      <point x="225" y="934"/>
      <point x="10" y="674"/>
      <point x="10" y="474" type="qcurve" smooth="yes"/>
    </contour>
    <contour>
      <point x="581" y="451" type="qcurve" smooth="yes"/>
      <point x="581" y="461" type="line" smooth="yes"/>
      <point x="581" y="508"/>
      <point x="610" y="570"/>
      <point x="641" y="570" type="qcurve" smooth="yes"/>
      <point x="662" y="570"/>
      <point x="691" y="538"/>
      <point x="697" y="518" type="qcurve"/>
      <point x="697" y="396" type="line"/>
      <point x="691" y="376"/>
      <point x="662" y="344"/>
      <point x="641" y="344" type="qcurve" smooth="yes"/>
      <point x="610" y="344"/>
      <point x="581" y="404"/>
    </contour>
  </outline>
</glyph>
<glyph name="asciitilde" format="2">
  <advance width="1170"/>
  <unicode hex="007E"/>
  <outline>
    <contour>
      <point x="9.0" y="271.0" type="qcurve"/>
      <point x="451.0" y="271.0" type="line"/>
      <point x="451.0" y="320.19999999999993"/>
      <point x="481.0" y="391.0"/>
      <point x="532.0" y="391.0" type="qcurve" smooth="yes"/>
      <point x="580.0" y="391.0"/>
      <point x="758.5255255255255" y="259.0"/>
      <point x="845" y="259.0" type="qcurve" smooth="yes"/>
      <point x="1004.503164556962" y="259.0"/>
      <point x="1177.000066431852" y="551.9982240551576"/>
      <point x="1162.0" y="953.0" type="qcurve"/>
      <point x="719.0" y="953.0" type="line"/>
      <point x="718.0714395459472" y="872.2152404974047"/>
      <point x="692.0" y="823.0"/>
      <point x="659" y="823.0" type="qcurve" smooth="yes"/>
      <point x="619.0" y="823.0"/>
      <point x="434.94303797468353" y="965.0"/>
      <point x="339" y="965.0" type="qcurve" smooth="yes"/>
      <point x="174" y="965.0"/>
      <point x="-8.0" y="629"/>
    </contour>
  </outline>
</glyph>
<glyph name="onesuperior" format="2">
  <advance width="751"/>
  <unicode hex="00B9"/>
  <outline>
    <contour>
      <point x="495" y="1456" type="line"/>
      <point x="477" y="1456" type="line"/>
      <point x="123" y="1340" type="line"/>
      <point x="123" y="1211" type="line"/>
      <point x="339" y="1268" type="line"/>
      <point x="339" y="667" type="line"/>
      <point x="495" y="667" type="line"/>
    </contour>
  </outline>
</glyph>
<glyph name="jdotless" format="2">
  <advance width="674"/>
  <outline>
    <contour>
      <point x="-216" y="-419" type="qcurve"/>
      <point x="-229" y="-17.0" type="line"/>
      <point x="-208" y="-20.0"/>
      <point x="-139" y="-35"/>
      <point x="-68" y="-35" type="qcurve" smooth="yes"/>
      <point x="13" y="-35.0"/>
      <point x="66.0" y="35.0"/>
      <point x="66" y="153.0" type="qcurve" smooth="yes"/>
      <point x="66" y="914" type="line"/>
      <point x="654" y="914" type="line"/>
      <point x="654" y="57" type="line" smooth="yes"/>
      <point x="654.0" y="-202.0"/>
      <point x="359" y="-440"/>
      <point x="60" y="-440" type="qcurve" smooth="yes"/>
      <point x="-15" y="-440"/>
      <point x="-171" y="-426"/>
    </contour>
  </outline>
</glyph>
<glyph name="zerosuperior" format="2">
  <advance width="793"/>
  <outline>
    <contour>
      <point x="5" y="1085" type="line" smooth="yes"/>
      <point x="5" y="890"/>
      <point x="225" y="680"/>
      <point x="397" y="680" type="qcurve" smooth="yes"/>
      <point x="569" y="680"/>
      <point x="788" y="890"/>
      <point x="788" y="1085" type="qcurve" smooth="yes"/>
      <point x="788" y="1126" type="line" smooth="yes"/>
      <point x="788" y="1296"/>
      <point x="569" y="1496"/>
      <point x="397" y="1496" type="qcurve" smooth="yes"/>
      <point x="225" y="1496"/>
      <point x="5" y="1296"/>
      <point x="5" y="1126" type="qcurve" smooth="yes"/>
    </contour>
    <contour>
      <point x="358" y="1009" type="qcurve" smooth="yes"/>
      <point x="358" y="1157" type="line" smooth="yes"/>
      <point x="358" y="1210"/>
      <point x="373" y="1250"/>
      <point x="397" y="1250" type="qcurve" smooth="yes"/>
      <point x="421" y="1250"/>
      <point x="435" y="1210"/>
      <point x="435" y="1157" type="qcurve" smooth="yes"/>
      <point x="435" y="1009" type="line" smooth="yes"/>
      <point x="435" y="956"/>
      <point x="418" y="926"/>
      <point x="397" y="926" type="qcurve" smooth="yes"/>
      <point x="376" y="926"/>
      <point x="358" y="956"/>
    </contour>
  </outline>
</glyph>
